<mxfile host="app.diagrams.net" modified="2020-09-15T16:25:45.285Z" agent="5.0 (Windows NT 10.0; Win64; x64) AppleWebKit/537.36 (KHTML, like Gecko) Chrome/85.0.4183.102 Safari/537.36" etag="WPyuL6KacjrfyLtedOpA" version="13.7.1" type="github">
  <diagram id="DWfJ01J_XPEENA6T38mr" name="Page-1">
    <mxGraphModel dx="1038" dy="531" grid="1" gridSize="10" guides="1" tooltips="1" connect="1" arrows="1" fold="1" page="1" pageScale="1" pageWidth="850" pageHeight="1100" math="0" shadow="0">
      <root>
        <mxCell id="0" />
        <mxCell id="1" parent="0" />
        <mxCell id="QUAUciEGf7oJxG4A6nrq-1" value="" style="whiteSpace=wrap;html=1;aspect=fixed;" vertex="1" parent="1">
          <mxGeometry x="105.00000000000001" y="70" width="640" height="640" as="geometry" />
        </mxCell>
        <mxCell id="QUAUciEGf7oJxG4A6nrq-2" value="" style="rounded=0;whiteSpace=wrap;html=1;" vertex="1" parent="1">
          <mxGeometry x="105.00000000000001" y="70" width="640" height="60" as="geometry" />
        </mxCell>
        <mxCell id="QUAUciEGf7oJxG4A6nrq-3" value="&lt;font style=&quot;font-size: 24px&quot; face=&quot;NiteClub&quot; data-font-src=&quot;https://www.dafont.com/nite-club.font&quot;&gt;&lt;b&gt;Lofi Chai&lt;/b&gt;&lt;/font&gt;" style="text;html=1;strokeColor=none;fillColor=none;align=center;verticalAlign=middle;whiteSpace=wrap;rounded=0;" vertex="1" parent="1">
          <mxGeometry x="360" y="80" width="110" height="40" as="geometry" />
        </mxCell>
        <mxCell id="QUAUciEGf7oJxG4A6nrq-4" value="" style="rounded=0;whiteSpace=wrap;html=1;" vertex="1" parent="1">
          <mxGeometry x="105.00000000000001" y="130" width="640" height="60" as="geometry" />
        </mxCell>
        <mxCell id="QUAUciEGf7oJxG4A6nrq-5" value="Home" style="text;html=1;strokeColor=none;fillColor=none;align=center;verticalAlign=middle;whiteSpace=wrap;rounded=0;" vertex="1" parent="1">
          <mxGeometry x="125.00000000000001" y="150" width="40" height="20" as="geometry" />
        </mxCell>
        <mxCell id="QUAUciEGf7oJxG4A6nrq-6" value="About" style="text;html=1;strokeColor=none;fillColor=none;align=center;verticalAlign=middle;whiteSpace=wrap;rounded=0;" vertex="1" parent="1">
          <mxGeometry x="175" y="150" width="40" height="20" as="geometry" />
        </mxCell>
        <mxCell id="QUAUciEGf7oJxG4A6nrq-7" value="Venues" style="text;html=1;strokeColor=none;fillColor=none;align=center;verticalAlign=middle;whiteSpace=wrap;rounded=0;" vertex="1" parent="1">
          <mxGeometry x="225" y="150" width="40" height="20" as="geometry" />
        </mxCell>
        <mxCell id="QUAUciEGf7oJxG4A6nrq-12" value="" style="rounded=0;whiteSpace=wrap;html=1;" vertex="1" parent="1">
          <mxGeometry x="145" y="230" width="215" height="120" as="geometry" />
        </mxCell>
        <mxCell id="QUAUciEGf7oJxG4A6nrq-13" value="&lt;h1&gt;&lt;font face=&quot;NiteClub&quot; data-font-src=&quot;https://www.dafont.com/nite-club.font&quot;&gt;Green Tea&lt;/font&gt;&lt;/h1&gt;&lt;div&gt;description and trivia about green tea. Recommendations on where to drink in the club.&lt;/div&gt;" style="text;html=1;strokeColor=none;fillColor=none;spacing=5;spacingTop=-20;whiteSpace=wrap;overflow=hidden;rounded=0;" vertex="1" parent="1">
          <mxGeometry x="145" y="230" width="195" height="120" as="geometry" />
        </mxCell>
        <mxCell id="QUAUciEGf7oJxG4A6nrq-16" value="" style="rounded=0;whiteSpace=wrap;html=1;" vertex="1" parent="1">
          <mxGeometry x="105.00000000000001" y="650" width="640" height="60" as="geometry" />
        </mxCell>
        <mxCell id="QUAUciEGf7oJxG4A6nrq-17" value="&lt;b&gt;&lt;font style=&quot;font-size: 24px&quot;&gt;&amp;nbsp; &amp;nbsp; &amp;nbsp; &amp;nbsp; &amp;nbsp; &amp;nbsp; Home&amp;nbsp; &amp;nbsp; &amp;nbsp; &amp;nbsp; &amp;nbsp;About&amp;nbsp; &amp;nbsp; &amp;nbsp; &amp;nbsp;Venues&amp;nbsp; &amp;nbsp; &amp;nbsp; Rooms&amp;nbsp;&lt;/font&gt;&lt;/b&gt;" style="text;html=1;strokeColor=none;fillColor=none;align=left;verticalAlign=middle;whiteSpace=wrap;rounded=0;" vertex="1" parent="1">
          <mxGeometry x="105.00000000000001" y="650" width="640" height="30" as="geometry" />
        </mxCell>
        <mxCell id="QUAUciEGf7oJxG4A6nrq-18" value="Routes page to display Home, About, Venues, and Rooms information" style="text;html=1;strokeColor=none;fillColor=none;align=center;verticalAlign=middle;whiteSpace=wrap;rounded=0;" vertex="1" parent="1">
          <mxGeometry x="105.00000000000001" y="690" width="640" height="20" as="geometry" />
        </mxCell>
        <mxCell id="QUAUciEGf7oJxG4A6nrq-20" value="" style="rounded=0;whiteSpace=wrap;html=1;" vertex="1" parent="1">
          <mxGeometry x="450" y="230" width="215" height="120" as="geometry" />
        </mxCell>
        <mxCell id="QUAUciEGf7oJxG4A6nrq-21" value="&lt;h1&gt;&lt;font face=&quot;NiteClub&quot; data-font-src=&quot;https://www.dafont.com/nite-club.font&quot;&gt;Black Tea&lt;/font&gt;&lt;/h1&gt;&lt;div&gt;description and trivia about black tea. Recommendations on areas to drink within the club.&lt;/div&gt;" style="text;html=1;strokeColor=none;fillColor=none;spacing=5;spacingTop=-20;whiteSpace=wrap;overflow=hidden;rounded=0;" vertex="1" parent="1">
          <mxGeometry x="450" y="230" width="195" height="120" as="geometry" />
        </mxCell>
        <mxCell id="QUAUciEGf7oJxG4A6nrq-22" value="" style="rounded=0;whiteSpace=wrap;html=1;" vertex="1" parent="1">
          <mxGeometry x="145" y="380" width="215" height="120" as="geometry" />
        </mxCell>
        <mxCell id="QUAUciEGf7oJxG4A6nrq-23" value="&lt;h1&gt;&lt;font face=&quot;NiteClub&quot; data-font-src=&quot;https://www.dafont.com/nite-club.font&quot;&gt;White Tea&lt;/font&gt;&lt;/h1&gt;&lt;div&gt;description and trivia about white tea. Recommendations on areas to drink within the club.&lt;/div&gt;" style="text;html=1;strokeColor=none;fillColor=none;spacing=5;spacingTop=-20;whiteSpace=wrap;overflow=hidden;rounded=0;" vertex="1" parent="1">
          <mxGeometry x="145" y="380" width="195" height="120" as="geometry" />
        </mxCell>
        <mxCell id="QUAUciEGf7oJxG4A6nrq-24" value="" style="rounded=0;whiteSpace=wrap;html=1;" vertex="1" parent="1">
          <mxGeometry x="450" y="380" width="215" height="120" as="geometry" />
        </mxCell>
        <mxCell id="QUAUciEGf7oJxG4A6nrq-25" value="&lt;h1&gt;&lt;font face=&quot;NiteClub&quot; data-font-src=&quot;https://www.dafont.com/nite-club.font&quot;&gt;Ginseng Tea&lt;/font&gt;&lt;/h1&gt;&lt;div&gt;description and trivia about ginseng tea. Recommendations on areas to drink within the club.&lt;/div&gt;" style="text;html=1;strokeColor=none;fillColor=none;spacing=5;spacingTop=-20;whiteSpace=wrap;overflow=hidden;rounded=0;" vertex="1" parent="1">
          <mxGeometry x="450" y="380" width="195" height="120" as="geometry" />
        </mxCell>
        <mxCell id="QUAUciEGf7oJxG4A6nrq-26" value="" style="rounded=0;whiteSpace=wrap;html=1;" vertex="1" parent="1">
          <mxGeometry x="145" y="520" width="215" height="120" as="geometry" />
        </mxCell>
        <mxCell id="QUAUciEGf7oJxG4A6nrq-27" value="&lt;h1&gt;&lt;font face=&quot;NiteClub&quot; data-font-src=&quot;https://www.dafont.com/nite-club.font&quot;&gt;Oolong Tea&lt;/font&gt;&lt;/h1&gt;&lt;div&gt;description and trivia about Oolong tea. Recommendations on areas to drink within the club.&lt;/div&gt;" style="text;html=1;strokeColor=none;fillColor=none;spacing=5;spacingTop=-20;whiteSpace=wrap;overflow=hidden;rounded=0;" vertex="1" parent="1">
          <mxGeometry x="145" y="520" width="195" height="120" as="geometry" />
        </mxCell>
        <mxCell id="QUAUciEGf7oJxG4A6nrq-28" value="Rooms" style="text;html=1;strokeColor=none;fillColor=none;align=center;verticalAlign=middle;whiteSpace=wrap;rounded=0;" vertex="1" parent="1">
          <mxGeometry x="280" y="150" width="40" height="20" as="geometry" />
        </mxCell>
        <mxCell id="QUAUciEGf7oJxG4A6nrq-29" value="" style="rounded=0;whiteSpace=wrap;html=1;" vertex="1" parent="1">
          <mxGeometry x="565" y="130" width="180" height="60" as="geometry" />
        </mxCell>
        <mxCell id="QUAUciEGf7oJxG4A6nrq-32" value="&lt;b&gt;MP3 Player&lt;/b&gt;" style="text;html=1;fillColor=none;align=center;verticalAlign=middle;whiteSpace=wrap;rounded=0;strokeColor=#000000;" vertex="1" parent="1">
          <mxGeometry x="565" y="130" width="180" height="30" as="geometry" />
        </mxCell>
        <mxCell id="QUAUciEGf7oJxG4A6nrq-33" value="&lt;b&gt;Skip/Pause/Play&lt;/b&gt;" style="text;html=1;fillColor=none;align=center;verticalAlign=middle;whiteSpace=wrap;rounded=0;strokeColor=#000000;" vertex="1" parent="1">
          <mxGeometry x="565" y="160" width="100" height="30" as="geometry" />
        </mxCell>
        <mxCell id="QUAUciEGf7oJxG4A6nrq-34" value="&lt;b&gt;Volume Slider&lt;/b&gt;" style="text;html=1;fillColor=none;align=center;verticalAlign=middle;whiteSpace=wrap;rounded=0;strokeColor=#000000;" vertex="1" parent="1">
          <mxGeometry x="665" y="160" width="80" height="30" as="geometry" />
        </mxCell>
        <mxCell id="QUAUciEGf7oJxG4A6nrq-36" value="&lt;b&gt;&lt;font style=&quot;font-size: 23px&quot;&gt;Home&lt;/font&gt;&lt;/b&gt;" style="text;html=1;strokeColor=none;fillColor=none;align=center;verticalAlign=middle;whiteSpace=wrap;rounded=0;" vertex="1" parent="1">
          <mxGeometry x="55" y="20" width="160" height="50" as="geometry" />
        </mxCell>
        <mxCell id="QUAUciEGf7oJxG4A6nrq-38" value="" style="rounded=0;whiteSpace=wrap;html=1;" vertex="1" parent="1">
          <mxGeometry x="450" y="520" width="215" height="120" as="geometry" />
        </mxCell>
        <mxCell id="QUAUciEGf7oJxG4A6nrq-39" value="&lt;h1&gt;&lt;font face=&quot;NiteClub&quot; data-font-src=&quot;https://www.dafont.com/nite-club.font&quot;&gt;Chai Tea&lt;/font&gt;&lt;/h1&gt;&lt;div&gt;description and trivia about Chai tea. Recommendations on areas to drink within the club.&lt;/div&gt;" style="text;html=1;strokeColor=none;fillColor=none;spacing=5;spacingTop=-20;whiteSpace=wrap;overflow=hidden;rounded=0;" vertex="1" parent="1">
          <mxGeometry x="450" y="520" width="195" height="120" as="geometry" />
        </mxCell>
      </root>
    </mxGraphModel>
  </diagram>
</mxfile>
